<?xml version="1.0" encoding="UTF-8" standalone="no"?>
<!-- Created with Inkscape (http://www.inkscape.org/) -->
<svg
   xmlns:dc="http://purl.org/dc/elements/1.1/"
   xmlns:cc="http://creativecommons.org/ns#"
   xmlns:rdf="http://www.w3.org/1999/02/22-rdf-syntax-ns#"
   xmlns:svg="http://www.w3.org/2000/svg"
   xmlns="http://www.w3.org/2000/svg"
   xmlns:sodipodi="http://sodipodi.sourceforge.net/DTD/sodipodi-0.dtd"
   xmlns:inkscape="http://www.inkscape.org/namespaces/inkscape"
   width="286.92639"
   height="179.70726"
   id="svg5657"
   sodipodi:version="0.32"
   inkscape:version="0.45.1+0.46pre1+devel"
   version="1.0"
   sodipodi:docname="Hamare1.svg"
   inkscape:output_extension="org.inkscape.output.svg.inkscape">
  <defs
     id="defs5659">
    <filter
       inkscape:collect="always"
       id="filter3542">
      <feGaussianBlur
         inkscape:collect="always"
         stdDeviation="0.84799655"
         id="feGaussianBlur3544" />
    </filter>
    <filter
       inkscape:collect="always"
       id="filter5582"
       x="-0.3465333"
       width="1.6930666"
       y="-0.17128985"
       height="1.3425797">
      <feGaussianBlur
         inkscape:collect="always"
         stdDeviation="0.92750316"
         id="feGaussianBlur5584" />
    </filter>
    <filter
       inkscape:collect="always"
       id="filter5586"
       x="-0.30290908"
       width="1.6058182"
       y="-0.11234468"
       height="1.2246894">
      <feGaussianBlur
         inkscape:collect="always"
         stdDeviation="0.92750316"
         id="feGaussianBlur5588" />
    </filter>
    <filter
       inkscape:collect="always"
       id="filter5590"
       x="-0.28356472"
       width="1.5671294"
       y="-0.11234468"
       height="1.2246894">
      <feGaussianBlur
         inkscape:collect="always"
         stdDeviation="0.92750316"
         id="feGaussianBlur5592" />
    </filter>
    <filter
       inkscape:collect="always"
       id="filter5594"
       x="-0.35979393"
       width="1.7195879"
       y="-0.12421883"
       height="1.2484376">
      <feGaussianBlur
         inkscape:collect="always"
         stdDeviation="0.92750316"
         id="feGaussianBlur5596" />
    </filter>
    <filter
       inkscape:collect="always"
       id="filter5598"
       x="-0.43410373"
       width="1.8682075"
       y="-0.12690131"
       height="1.2538027">
      <feGaussianBlur
         inkscape:collect="always"
         stdDeviation="0.92750316"
         id="feGaussianBlur5600" />
    </filter>
    <filter
       inkscape:collect="always"
       id="filter5602"
       x="-0.38283995"
       width="1.76568"
       y="-0.1152833"
       height="1.2305666">
      <feGaussianBlur
         inkscape:collect="always"
         stdDeviation="0.92750316"
         id="feGaussianBlur5604" />
    </filter>
    <filter
       inkscape:collect="always"
       id="filter5606"
       x="-0.42053297"
       width="1.8410659"
       y="-0.11234468"
       height="1.2246894">
      <feGaussianBlur
         inkscape:collect="always"
         stdDeviation="0.92750316"
         id="feGaussianBlur5608" />
    </filter>
    <filter
       inkscape:collect="always"
       id="filter5610"
       x="-0.53176022"
       width="2.0635204"
       y="-0.11234468"
       height="1.2246894">
      <feGaussianBlur
         inkscape:collect="always"
         stdDeviation="0.92750316"
         id="feGaussianBlur5612" />
    </filter>
    <filter
       inkscape:collect="always"
       id="filter5614"
       x="-0.58108991"
       width="2.1621797"
       y="-0.12081367"
       height="1.2416273">
      <feGaussianBlur
         inkscape:collect="always"
         stdDeviation="0.92750316"
         id="feGaussianBlur5616" />
    </filter>
    <filter
       inkscape:collect="always"
       id="filter5618"
       x="-0.41775805"
       width="1.8355161"
       y="-0.16802467"
       height="1.3360493">
      <feGaussianBlur
         inkscape:collect="always"
         stdDeviation="0.92750316"
         id="feGaussianBlur5620" />
    </filter>
    <filter
       inkscape:collect="always"
       id="filter5224"
       x="-0.23833048"
       width="1.476661"
       y="-0.062673986"
       height="1.125348">
      <feGaussianBlur
         inkscape:collect="always"
         stdDeviation="0.45807503"
         id="feGaussianBlur5226" />
    </filter>
    <filter
       inkscape:collect="always"
       id="filter5228"
       x="-0.20217814"
       width="1.4043562"
       y="-0.058860663"
       height="1.1177213">
      <feGaussianBlur
         inkscape:collect="always"
         stdDeviation="0.45807503"
         id="feGaussianBlur5230" />
    </filter>
    <filter
       inkscape:collect="always"
       id="filter3650"
       x="-0.51865631"
       width="2.0373127"
       y="-0.12810208"
       height="1.2562042">
      <feGaussianBlur
         inkscape:collect="always"
         stdDeviation="1.012616"
         id="feGaussianBlur3652" />
    </filter>
    <filter
       inkscape:collect="always"
       id="filter3706"
       x="-0.13196866"
       width="1.2639374"
       y="-0.050618105"
       height="1.1012362">
      <feGaussianBlur
         inkscape:collect="always"
         stdDeviation="0.32992165"
         id="feGaussianBlur3708" />
    </filter>
    <filter
       inkscape:collect="always"
       id="filter3654"
       x="-0.36350286"
       width="1.7270057"
       y="-0.11588526"
       height="1.2317705">
      <feGaussianBlur
         inkscape:collect="always"
         stdDeviation="1.012616"
         id="feGaussianBlur3656" />
    </filter>
    <filter
       inkscape:collect="always"
       id="filter3358"
       x="-0.12176921"
       width="1.2435384"
       y="-0.052298307"
       height="1.1045966">
      <feGaussianBlur
         inkscape:collect="always"
         stdDeviation="1.214068"
         id="feGaussianBlur3360" />
    </filter>
    <filter
       inkscape:collect="always"
       id="filter3430">
      <feGaussianBlur
         inkscape:collect="always"
         stdDeviation="1.0413037"
         id="feGaussianBlur3432" />
    </filter>
    <filter
       inkscape:collect="always"
       id="filter3442">
      <feGaussianBlur
         inkscape:collect="always"
         stdDeviation="0.49542683"
         id="feGaussianBlur3444" />
    </filter>
    <filter
       inkscape:collect="always"
       id="filter3482">
      <feGaussianBlur
         inkscape:collect="always"
         stdDeviation="1.5664925"
         id="feGaussianBlur3484" />
    </filter>
    <inkscape:perspective
       sodipodi:type="inkscape:persp3d"
       inkscape:vp_x="-50 : 600 : 1"
       inkscape:vp_y="0 : 1000 : 0"
       inkscape:vp_z="700 : 600 : 1"
       inkscape:persp3d-origin="300 : 400 : 1"
       id="perspective5665" />
  </defs>
  <sodipodi:namedview
     id="base"
     pagecolor="#ffffff"
     bordercolor="#666666"
     borderopacity="1.0"
     gridtolerance="10000"
     guidetolerance="10"
     objecttolerance="10"
     inkscape:pageopacity="0.0"
     inkscape:pageshadow="2"
     inkscape:zoom="0.35"
     inkscape:cx="375"
     inkscape:cy="520"
     inkscape:document-units="px"
     inkscape:current-layer="layer1"
     showgrid="false"
     inkscape:window-width="1152"
     inkscape:window-height="838"
     inkscape:window-x="-4"
     inkscape:window-y="-4" />
  <metadata
     id="metadata5662">
    <rdf:RDF>
      <cc:Work
         rdf:about="">
        <dc:format>image/svg+xml</dc:format>
        <dc:type
           rdf:resource="http://purl.org/dc/dcmitype/StillImage" />
      </cc:Work>
    </rdf:RDF>
  </metadata>
  <g
     inkscape:label="Layer 1"
     inkscape:groupmode="layer"
     id="layer1"
     transform="translate(-127.96538,-282.50855)">
    <g
       id="g5622"
       transform="translate(279.0039,119.98282)">
      <path
         id="path2476"
         d="M -84.609954,162.52573 L -73.895664,163.59716 L -80.324234,173.9543 L -66.752804,164.31144 L -56.038524,167.16859 L -57.109954,171.09716 L -69.967094,183.9543 L -81.395664,196.09716 C -81.395664,196.09716 -90.324234,207.16858 -92.109954,211.4543 C -93.895664,215.74001 -97.109954,221.09716 -97.824234,225.38287 C -98.538524,229.66858 -99.252804,235.38287 -98.181384,236.81144 C -97.109954,238.24001 -87.109954,241.4543 -87.109954,241.4543 L -79.252804,241.09716 L -75.681384,242.88287 L 13.247196,241.4543 L 15.390046,237.16858 L 57.175766,232.16858 L 103.2472,232.52573 L 117.17577,231.4543 L 118.96148,230.74001 L 125.7472,231.09716 C 125.7472,231.09716 133.96148,235.74001 135.03291,239.31144 C 136.10434,242.88287 136.10434,249.31144 135.39005,252.88287 C 134.67577,256.4543 132.17577,262.52573 129.67577,264.66858 C 127.17577,266.81144 121.10434,267.88287 121.10434,267.88287 L 115.7472,265.38287 L 93.961476,265.02573 L 55.032906,267.52573 L 15.747196,265.38287 L 12.175766,262.88287 L -74.609954,265.02573 L -76.395664,267.16858 L -82.467094,267.52573 L -97.824234,275.74001 C -97.824234,275.74001 -104.2528,281.81144 -106.03852,285.74001 C -107.82423,289.66858 -111.39566,297.16858 -111.39566,302.16858 C -111.39566,307.16858 -108.89566,314.66858 -108.89566,314.66858 L -108.53852,321.4543 L -111.03852,336.4543 C -111.03852,336.4543 -113.18138,340.02573 -116.7528,341.4543 C -120.32423,342.88287 -137.10995,342.16858 -139.60995,340.74001 C -142.10995,339.31144 -148.89566,335.02573 -150.32423,332.52573 C -151.7528,330.02573 -147.10995,311.4543 -147.10995,311.4543 L -140.32423,303.59716 C -140.32423,303.59716 -138.18138,296.81144 -138.18138,293.24001 C -138.18138,289.66858 -143.53852,280.02573 -143.53852,280.02573 L -146.7528,273.9543 L -145.32423,259.66858 C -145.32423,259.66858 -140.32423,236.81144 -139.2528,232.88287 C -138.18138,228.9543 -131.03852,213.59716 -128.53852,208.59716 C -126.03852,203.59716 -113.89566,188.59716 -111.39566,186.4543 C -108.89566,184.31144 -84.252804,162.88287 -84.609954,162.52573 z"
         style="fill:#1d1d1d;fill-opacity:1;fill-rule:evenodd;stroke:none;stroke-width:1px;stroke-linecap:butt;stroke-linejoin:miter;stroke-opacity:1" />
      <path
         id="path3250"
         d="M -84.609954,162.52573 L -111.7528,187.88287 L -121.39566,197.52573 L -126.03852,204.66858 L -108.18138,211.81144 L -99.252804,199.66858 L -89.252804,191.81144 L -67.824234,174.66859 L -56.752804,167.88287 L -67.824234,163.9543 L -100.32423,190.74002 L -113.18138,201.81144 L -107.46709,194.31144 L -93.181384,180.74002 L -79.252804,168.9543 L -74.609954,163.59716 L -84.609954,162.52573 z"
         style="opacity:1;fill:#ffffff;fill-opacity:1;fill-rule:evenodd;stroke:none;stroke-width:1px;stroke-linecap:butt;stroke-linejoin:miter;stroke-opacity:1;filter:url(#filter3482)" />
      <path
         sodipodi:nodetypes="cccccc"
         id="path3254"
         d="M -126.03852,204.31144 L -108.18138,211.81144 L -112.04496,218.8497 L -123.89566,215.74001 L -130.38551,212.90454 L -126.03852,204.31144 z"
         style="fill:#a9a9a9;fill-opacity:1;fill-rule:evenodd;stroke:none;stroke-width:1px;stroke-linecap:butt;stroke-linejoin:miter;stroke-opacity:1;filter:url(#filter3442)" />
      <path
         id="path3304"
         d="M -79.609954,173.24002 L -96.752804,186.09716 L -111.39566,200.38287 L -87.109954,176.09716 L -76.395664,167.16859 L -79.609954,173.24002 z"
         style="fill:#707070;fill-opacity:1;fill-rule:evenodd;stroke:none;stroke-width:1px;stroke-linecap:butt;stroke-linejoin:miter;stroke-opacity:1" />
      <path
         id="path3308"
         d="M -130.32423,213.24001 L -112.82423,218.59716 L -122.82423,242.16858 L -123.18138,235.38287 L -126.7528,230.74001 L -132.46709,228.24001 L -137.82423,227.88287 L -130.32423,213.24001 z"
         style="fill:#f7f7f7;fill-opacity:1;fill-rule:evenodd;stroke:none;stroke-width:1px;stroke-linecap:butt;stroke-linejoin:miter;stroke-opacity:1;filter:url(#filter3430)" />
      <path
         sodipodi:nodetypes="ccccccccccccc"
         id="path3312"
         d="M -122.92884,243.03081 L -126.91869,256.70684 L -128.95694,267.44959 L -129.60995,280.02573 L -137.10995,283.59716 L -146.7528,273.9543 L -144.2528,253.9543 L -140.32423,236.81144 L -137.82423,227.88287 L -130.32423,228.9543 L -126.03852,231.81144 L -122.82423,236.81144 L -122.92884,243.03081 z"
         style="fill:#9d9d9d;fill-opacity:1;fill-rule:evenodd;stroke:none;stroke-width:1px;stroke-linecap:butt;stroke-linejoin:miter;stroke-opacity:1;filter:url(#filter3358)" />
      <path
         id="path3494"
         d="M -108.18138,289.66858 L -118.89566,291.4543 L -128.89566,282.88287"
         style="fill:none;fill-rule:evenodd;stroke:#626262;stroke-width:1px;stroke-linecap:butt;stroke-linejoin:miter;stroke-opacity:1" />
      <path
         sodipodi:nodetypes="cccccc"
         id="path3498"
         d="M -130.68138,302.52573 L -121.39566,301.9543 L -121.03852,322.38287 L -136.96709,319.88287 L -131.7528,307.88287 L -130.68138,302.52573 z"
         style="fill:#515151;fill-opacity:1;fill-rule:evenodd;stroke:none;stroke-width:1px;stroke-linecap:butt;stroke-linejoin:miter;stroke-opacity:1" />
      <path
         sodipodi:nodetypes="cccccccccccccccccccccccccccccccccccccccccccccccccsc"
         id="path3500"
         d="M -108.89566,320.02573 L -114.60995,320.88287 L -122.10995,321.4543 L -135.68138,318.24001 L -130.10995,303.4543 L -121.7528,303.24001 L -118.89566,301.09716 L -109.60995,295.38287 L -106.03852,285.74001 L -101.35411,279.23731 L -96.456941,274.89946 L -82.467094,267.52573 L -81.038524,258.9543 L -81.395664,253.59716 L -82.109954,249.66858 L -84.609954,248.24001 L -91.752804,246.81144 L -95.324234,245.02573 L -97.109954,243.24001 L -97.109954,237.16858 L -98.538524,236.81144 L -98.242651,227.3128 L -96.814081,221.18009 L -92.824234,212.88287 L -87.467094,203.9543 L -81.038524,195.67873 L -73.812729,187.82159 L -64.252804,178.9543 L -57.109954,171.09716 L -56.604878,167.06398 L -74.609954,180.38287 L -88.538524,191.81144 L -101.03852,203.24001 L -110.32423,214.31144 L -117.10995,230.38287 L -124.60995,248.24001 L -128.18138,266.4543 L -129.2528,277.16858 L -129.60995,279.81144 L -137.46709,283.02573 L -145.85097,275.12526 L -139.2528,288.9543 L -139.27583,299.33311 L -141.03852,303.9543 L -147.82423,311.09716 L -151.03852,333.24001 L -139.60995,340.02573 L -121.03852,341.81144 L -114.96709,339.66858 C -114.96709,339.66858 -110.68138,337.16858 -110.68138,335.74001 C -110.68138,334.31144 -107.82423,320.02573 -108.89566,320.02573 z"
         style="fill:#9a9a9a;fill-opacity:1;fill-rule:evenodd;stroke:none;stroke-width:1px;stroke-linecap:butt;stroke-linejoin:miter;stroke-opacity:1" />
      <path
         id="path3486"
         d="M -140.68138,337.16858 L -136.39566,318.59716"
         style="fill:none;fill-rule:evenodd;stroke:#fcfcfc;stroke-width:2.4000001;stroke-linecap:butt;stroke-linejoin:miter;stroke-miterlimit:4;stroke-dasharray:none;stroke-opacity:1;filter:url(#filter3654)" />
      <path
         id="path3490"
         d="M -136.7528,316.4543 C -135.32423,315.02573 -133.53852,309.31144 -133.53852,309.31144 L -131.7528,301.81144"
         style="fill:none;fill-rule:evenodd;stroke:#c9c9c9;stroke-width:1px;stroke-linecap:butt;stroke-linejoin:miter;stroke-opacity:1;filter:url(#filter3706)" />
      <path
         sodipodi:nodetypes="cc"
         id="path3488"
         d="M -117.10995,340.38286 L -114.82423,323.81144"
         style="fill:none;fill-rule:evenodd;stroke:#cecece;stroke-width:2.4000001;stroke-linecap:butt;stroke-linejoin:miter;stroke-miterlimit:4;stroke-dasharray:none;stroke-opacity:1;filter:url(#filter3650)" />
      <path
         sodipodi:nodetypes="cccccccc"
         id="path3504"
         d="M -121.03852,321.09716 L -121.7528,303.21835 L -113.2247,297.52573 L -114.60995,306.09716 L -114.96709,311.81144 L -112.10995,320.74001 L -116.7528,321.09716 L -121.03852,321.09716 z"
         style="fill:#dbdbdb;fill-opacity:1;fill-rule:evenodd;stroke:none;stroke-width:1px;stroke-linecap:butt;stroke-linejoin:miter;stroke-opacity:1" />
      <path
         sodipodi:nodetypes="ccccccccccc"
         id="path3506"
         d="M -112.46709,320.38287 L -108.18138,320.02573 L -108.89566,314.66858 L -111.01685,306.3497 L -111.50026,302.33818 L -111.52256,299.82784 L -109.39566,295.16858 L -113.18138,296.24001 L -115.32423,307.16858 L -114.96709,311.4543 L -112.46709,320.38287 z"
         style="fill:#7f7f7f;fill-opacity:1;fill-rule:evenodd;stroke:none;stroke-width:1px;stroke-linecap:butt;stroke-linejoin:miter;stroke-opacity:1" />
      <path
         id="path5112"
         d="M -82.327434,267.47365 L -76.140244,267.47365 L -74.751284,265.20081 L -66.670064,264.94827 L -64.270954,262.29662 L -62.881994,259.01362 L -62.503184,255.22555 L -62.503184,252.5739 L -63.008264,250.42733 L -63.513344,248.78583 L -78.034284,247.2706 L -81.696084,248.15448 L -81.317284,253.71032 L -81.569814,261.28647 L -82.327434,267.47365 z"
         style="fill:#e0e0e0;fill-opacity:1;fill-rule:evenodd;stroke:none;stroke-width:1px;stroke-linecap:butt;stroke-linejoin:miter;stroke-opacity:1" />
      <path
         id="path5118"
         d="M -64.144684,261.03393 L -75.003824,260.90766 C -75.003824,260.90766 -76.771594,263.05423 -77.655474,263.05423 C -78.539364,263.05423 -81.822354,263.1805 -81.822354,263.1805 L -82.074894,267.22111 L -75.887714,267.47365 L -74.498754,265.20081 L -66.291264,264.69573 L -64.144684,261.03393 z"
         style="fill:#959595;fill-opacity:1;fill-rule:evenodd;stroke:none;stroke-width:1px;stroke-linecap:butt;stroke-linejoin:miter;stroke-opacity:1" />
      <path
         id="path5114"
         d="M -79.044434,266.21096 C -79.044434,266.21096 -75.382634,262.54916 -74.751284,258.38228 C -74.119944,254.2154 -75.761444,248.53329 -75.761444,248.53329"
         style="fill:none;fill-rule:evenodd;stroke:#6f6f6f;stroke-width:1px;stroke-linecap:butt;stroke-linejoin:miter;stroke-opacity:1;filter:url(#filter5228)" />
      <path
         id="path5116"
         d="M -81.443544,265.45335 C -81.443544,265.45335 -78.286824,261.1602 -77.908014,258.00347 C -77.529204,254.84674 -78.665624,248.9121 -78.665624,248.9121"
         style="fill:none;fill-rule:evenodd;stroke:#6f6f6f;stroke-width:1px;stroke-linecap:butt;stroke-linejoin:miter;stroke-opacity:1;filter:url(#filter5224)" />
      <path
         id="path5110"
         d="M -97.100914,238.05296 L -97.353454,242.72491 L -96.090764,244.49268 L -92.302684,246.26045 L -84.221464,248.40702 L -82.579974,249.16464 L -81.064744,254.59421 L -81.191014,248.9121 L -81.191014,248.02821 L -80.054584,248.02821 L -79.549514,249.03837 L -78.034284,247.39687 L -76.645324,247.77568 L -76.013974,248.9121 L -75.130094,247.64941 L -73.236054,248.15448 L -70.079334,248.65956 L -63.387074,248.15448 L -63.260804,245.37656 L 12.753176,242.09357 L 12.626906,241.33595 L -75.382634,242.85118 L -79.170704,240.83088 L -86.873114,241.08342 L -93.439114,238.81057 L -96.974644,237.42161 L -97.100914,238.05296 z"
         style="fill:#454545;fill-opacity:1;fill-rule:evenodd;stroke:#4e4e4e;stroke-width:1px;stroke-linecap:butt;stroke-linejoin:miter;stroke-opacity:1" />
      <path
         id="path5232"
         d="M -66.164994,264.822 L 4.2931456,263.05423 C 4.2931456,263.05423 9.7227156,257.24586 9.5964456,251.43748 C 9.4701756,245.6291 5.3033056,242.59864 5.3033056,242.59864 L -62.629454,246.00791 L -63.260804,248.53329 C -63.260804,248.53329 -61.619304,253.07898 -62.503184,257.11959 C -63.387074,261.1602 -66.417534,264.94827 -66.164994,264.822 z"
         style="fill:#2b2b2b;fill-opacity:1;fill-rule:evenodd;stroke:none;stroke-width:1px;stroke-linecap:butt;stroke-linejoin:miter;stroke-opacity:1" />
      <path
         sodipodi:nodetypes="ccscccsc"
         id="path5236"
         d="M 4.4194156,263.05423 L 13.510796,262.92796 C 13.510796,262.92796 20.203056,261.1602 21.213206,255.73063 C 22.223356,250.30106 20.203049,244.74521 20.203049,244.74521 L 10.480335,245.12402 L 7.4498756,244.61895 C 7.4498756,244.61895 10.985406,249.16464 9.0913756,254.2154 C 7.1973356,259.26616 4.4194156,262.92796 4.4194156,263.05423 z"
         style="fill:#d0d0d0;fill-opacity:1;fill-rule:evenodd;stroke:none;stroke-width:1px;stroke-linecap:butt;stroke-linejoin:miter;stroke-opacity:1" />
      <path
         id="path5238"
         d="M 20.581856,244.99776 C 20.581856,244.99776 18.687826,242.21984 16.920056,241.58849 C 15.152286,240.95715 13.637056,241.71476 13.637056,241.71476 L 12.374366,242.34611 L 6.1871856,242.59864 L 7.7024156,244.74522 L 10.227796,245.37656 L 20.581856,244.99776 z"
         style="fill:#707070;fill-opacity:1;fill-rule:evenodd;stroke:none;stroke-width:1px;stroke-linecap:butt;stroke-linejoin:miter;stroke-opacity:1" />
      <path
         id="path5242"
         d="M 58.336306,248.15448 C 58.336306,248.15448 61.366766,251.56375 60.482886,255.09928 C 59.599006,258.63482 56.316006,260.40258 56.316006,260.40258"
         style="fill:none;fill-rule:evenodd;stroke:#000000;stroke-width:1px;stroke-linecap:butt;stroke-linejoin:miter;stroke-opacity:1;filter:url(#filter5618)" />
      <path
         id="path5244"
         d="M 72.730986,248.78583 C 72.730986,248.78583 76.013976,252.95271 75.508906,257.75093 C 75.003826,262.54916 72.983526,266.21096 72.983526,266.21096"
         style="fill:none;fill-rule:evenodd;stroke:#000000;stroke-width:1px;stroke-linecap:butt;stroke-linejoin:miter;stroke-opacity:1;filter:url(#filter5614)" />
      <path
         id="path5246"
         d="M 78.791896,247.2706 C 78.791896,247.2706 82.201166,251.43748 81.822356,257.24586 C 81.443546,263.05423 78.665626,266.08469 78.665626,266.08469"
         style="fill:none;fill-rule:evenodd;stroke:#000000;stroke-width:1px;stroke-linecap:butt;stroke-linejoin:miter;stroke-opacity:1;filter:url(#filter5610)" />
      <path
         id="path5248"
         d="M 85.357896,247.01806 C 85.357896,247.01806 89.398506,251.05867 88.514616,256.2357 C 87.630736,261.41274 84.347736,265.83215 84.347736,265.83215"
         style="fill:none;fill-rule:evenodd;stroke:#000000;stroke-width:1px;stroke-linecap:butt;stroke-linejoin:miter;stroke-opacity:1;filter:url(#filter5606)" />
      <path
         id="path5250"
         d="M 92.176416,247.01806 C 92.176416,247.01806 94.954336,250.17479 94.701806,255.35182 C 94.449266,260.52885 89.903576,265.32708 89.903576,265.32708"
         style="fill:none;fill-rule:evenodd;stroke:#000000;stroke-width:1px;stroke-linecap:butt;stroke-linejoin:miter;stroke-opacity:1;filter:url(#filter5602)" />
      <path
         id="path5252"
         d="M 99.247486,247.90194 C 99.247486,247.90194 101.39407,251.94256 100.51018,256.86705 C 99.626296,261.79154 96.595836,264.44319 96.595836,264.44319"
         style="fill:none;fill-rule:evenodd;stroke:#000000;stroke-width:1px;stroke-linecap:butt;stroke-linejoin:miter;stroke-opacity:1;filter:url(#filter5598)" />
      <path
         id="path5254"
         d="M 105.30841,247.77568 C 105.30841,247.77568 107.96006,252.06882 107.20244,255.73063 C 106.44483,259.39243 102.15168,264.69573 102.15168,264.69573"
         style="fill:none;fill-rule:evenodd;stroke:#000000;stroke-width:1px;stroke-linecap:butt;stroke-linejoin:miter;stroke-opacity:1;filter:url(#filter5594)" />
      <path
         id="path5256"
         d="M 110.61171,246.38672 C 110.61171,246.38672 113.76844,249.79598 113.38963,255.47809 C 113.01082,261.1602 106.5711,265.20081 106.5711,265.20081 L 107.32871,265.07454"
         style="fill:none;fill-rule:evenodd;stroke:#000000;stroke-width:1px;stroke-linecap:butt;stroke-linejoin:miter;stroke-opacity:1;filter:url(#filter5590)" />
      <path
         id="path5258"
         d="M 117.1777,246.26045 C 117.1777,246.26045 120.20816,250.17479 119.32427,255.22555 C 118.44039,260.27631 113.13709,265.07454 113.13709,265.07454"
         style="fill:none;fill-rule:evenodd;stroke:#000000;stroke-width:1px;stroke-linecap:butt;stroke-linejoin:miter;stroke-opacity:1;filter:url(#filter5586)" />
      <path
         id="path5260"
         d="M 118.94547,244.99776 C 118.94547,244.99776 123.23862,247.39687 123.99623,251.18494 C 124.75384,254.97301 124.1225,256.99332 124.1225,256.99332"
         style="fill:none;fill-rule:evenodd;stroke:#000000;stroke-width:1px;stroke-linecap:butt;stroke-linejoin:miter;stroke-opacity:1;filter:url(#filter5582)" />
      <path
         id="path3502"
         d="M -129.2528,281.09716 C -129.2528,279.31144 -126.39566,256.09716 -126.39566,256.09716 L -123.18138,246.09716 L -118.18138,231.81144 L -112.46709,218.9543 L -107.82423,211.81144"
         style="fill:none;fill-rule:evenodd;stroke:#000000;stroke-width:1px;stroke-linecap:butt;stroke-linejoin:miter;stroke-opacity:1;filter:url(#filter3542)" />
    </g>
  </g>
</svg>
